# xmcd
#
# Track frame offsets:
#	150
#	17410
#	44327
#	59287
#	74927
#	104502
#	119412
#	143575
#	164862
#	177620
#	184030
#	207917
#	223247
#	256870
#	268162
#	283385
#	314137
#	340407
#
# Disc length: 4716 seconds
# Revision: 10
# Processed by: cddbd v1.5.2PL0 Copyright (c) Steve Scherf et al.
# Submitted via: dBpowerAMP V12.0
#
DISCID=36126a12
DTITLE=Various / Best of JS Bach
DYEAR=2002
DGENRE=Classical
TTITLE0=Hideo Nishizaki / Concerto for violin, strings & continuo No. 1 in A minor, BWV 1041: Allegro Assai
TTITLE1=New York Philharmonic / Cantata No. 208, "Was mir behagt," (Hunt Cantata), BWV 208 (BC G1, G3): No. 9, Schafe können sicher weiden
TTITLE2=Bohdan Warchal / Brandenburg Concerto No. 3 in G major, BWV 1048: Allegro
TTITLE3=Richard Edlinger / In dulci jubilo (II), chorale prelude for organ, BWV 729 (BC K115)
TTITLE4=Jaroslav Dvorak / Orchestral Suite No. 3 in D major, BWV 1068: Air
TTITLE5=Richard Edlinger / Nun komm der Heiden Heiland (II), chorale prelude for organ (Achtzehn Choräle No. 8), BWV 659 (BC K82)
TTITLE6=Jaroslav Dvorak / Orchestral Suite No. 2 in B minor, BWV 1067: Badinerie
TTITLE7=New York Philharmonic / Work(s): Unspecified Mein Jesu
TTITLE8=Bohdan Warchal / Brandenburg Concerto No. 1 in F major, BWV 1046: Adagio
TTITLE9=Hideo Nishizaki / Concerto for violin, strings & continuo No. 2 in E major, BWV 1042: Adagio
TTITLE10=Jaroslav Dvorak / Orchestral Suite No. 4 in D major, BWV 1069: Rejouissance
TTITLE11=New York Philharmonic / Meditation on Prelude No. 1 of Bach, for violin or cello & piano with organ or cello ad lib. (or other instrumental arrangement)
TTITLE12=Bohdan Warchal / Brandenburg Concerto No. 2 in F major, BWV 1047: Allegro Assai
TTITLE13=Hideo Nishizaki / Concerto for 2 violins, strings & continuo in D minor ("Double"), BWV 1043: Largo Ma Non Tanto
TTITLE14=Richard Edlinger / Cantata No. 140, "Wachet auf, ruft uns die Stimme," BWV 140 (BC A166): No.1
TTITLE15=Takako Nishizaki, Alexander Jablokov, Capella Istropolitana / Oliver Dohnayi / Double Concerto in D minor, BWV 1043 - Largo ma non tanto
TTITLE16=Capella Istropolitana / Richard Edlinger / Wachet auf, Cantata BWV 140, No.1
TTITLE17=Wolfgang Rubsam / Toccata and Fugue in D minor, BWV 565 - Toccata
EXTD=
EXTT0=
EXTT1=
EXTT2=
EXTT3=
EXTT4=
EXTT5=
EXTT6=
EXTT7=
EXTT8=
EXTT9=
EXTT10=
EXTT11=
EXTT12=
EXTT13=
EXTT14=
EXTT15=
EXTT16=
EXTT17=
PLAYORDER=
.
